<svg xmlns="http://www.w3.org/2000/svg" viewBox="0 0 493.52 421.54"><defs><style>.cls-1{fill:#ffac6f;}.cls-2{fill:#fff;}.cls-3{fill:#fd9766;}</style></defs><g id="Layer_6" data-name="Layer 6"><path class="cls-1" d="M1252,318s-84-20-155,23c-23-17-70-17.89-81-17.45S966.44,324,934.72,341C922.28,328,850,302,779,319c-20,34-9,153,31,187-5,26-24,228.89,206,228.89S1224,537,1221,508C1236,497,1284,408,1252,318Z" transform="translate(-769.25 -313.35)"/></g><g id="Layer_9" data-name="Layer 9"><circle class="cls-2" cx="156.75" cy="216.65" r="82"/><path d="M923,485c-13,0-16,15-16,20s2.55,51.58,5,59,11,11.51,16,11c4-.4,17-2,17-17s-1-56-3-60S936,485,923,485Z" transform="translate(-769.25 -313.35)"/></g><g id="Layer_9_copy" data-name="Layer 9 copy"><circle class="cls-2" cx="336.75" cy="216.65" r="82"/><path d="M1103,485c-13,0-16,15-16,20s2.55,51.58,5,59,11,11.51,16,11c4-.4,17-2,17-17s-1-56-3-60S1116,485,1103,485Z" transform="translate(-769.25 -313.35)"/><path d="M985,610s3-14.52,31-13.76S1051.7,607,1051.35,610s-27,28.37-33.17,29.18S988,619,985,610Z" transform="translate(-769.25 -313.35)"/></g><g id="Layer_7" data-name="Layer 7"><path class="cls-3" d="M824,372s-10,60,17,81c14-17,49-66,62-68C895,372,834,367,824,372Z" transform="translate(-769.25 -313.35)"/></g><g id="Layer_7_copy" data-name="Layer 7 copy"><path class="cls-3" d="M1210.19,367s10,60-17,81c-14-17-49-66-62-68C1139.19,367,1200.19,362,1210.19,367Z" transform="translate(-769.25 -313.35)"/></g></svg>